:SAMPLES-PER-SECOND 30
:FULLY-SPECIFIED
:DEGREES
379
root  -2.6594 41.6135 -4.26184 -0.691742 -79.3376 -8.46979
RightUpLeg  0.0517235 -1.40871 4.69439
RightLeg  27.9736 -0.684464 -0.649932
RightFoot  0.519557 -1.28152 12.6817
RightToes  7.56698e-010 0 -3.6325e-017
Spine  20.8155 0.31738 2.40521
Spine1  8.84665 1.78082 -3.73566
HEad  -15.7705 -4.71829 12.0403
LeftShoulder1  2.65916 -10.9798 -11.1627
LeftArm  -19.0032 -38.4593 -60.9052
LeftForeArm  3.03508 -17.0889 -5.80679
LeftHand  -1.75684 -3.32854 23.3753
RightShoulder  1.57499 5.35508 10.5631
RightArm  -34.588 30.656 52.8716
RightForeArm  -0.413174 22.2465 4.90736
RightHand  -2.96921 10.1803 -22.2105
LeftUpLeg  -28.4117 -12.5723 -2.10883
LeftLeg  54.6211 2.25984 3.87022
LeftFoot  23.5462 2.3156 -7.80616
LeftToes  -3.13779e-010 -2.47553e-011 -5.36621e-011
380
root  -3.05028 41.0199 -5.01005 1.58191 -73.9927 -11.1094
RightUpLeg  6.28022 -1.23249 6.24666
RightLeg  31.7654 -11.6124 -7.79699
RightFoot  -0.871329 -0.296186 3.34457
RightToes  7.56698e-010 0 -3.6325e-017
Spine  19.4824 -0.477676 2.58347
Spine1  9.1362 1.05442 -4.2505
HEad  -16.883 -8.26882 17.2331
LeftShoulder1  2.74879 -10.9692 -11.8702
LeftArm  -17.222 -37.2823 -61.1989
LeftForeArm  2.24794 -20.9359 -5.52882
LeftHand  -1.80153 -3.48811 23.5375
RightShoulder  1.71057 5.42241 12.1078
RightArm  -37.6292 27.6404 51.6547
RightForeArm  1.29803 29.9257 6.45301
RightHand  -2.82466 10.0187 -21.3842
LeftUpLeg  -31.0184 -13.2722 -4.47823
LeftLeg  51.795 4.15546 6.08049
LeftFoot  27.6424 2.82755 -8.52517
LeftToes  -3.13779e-010 -2.47553e-011 -5.36621e-011
381
root  -3.61774 40.1088 -5.62561 7.96164 -70.8766 -16.6003
RightUpLeg  11.7669 -2.02019 8.02565
RightLeg  31.1478 -17.1513 -11.1215
RightFoot  -1.24829 -0.0175539 0.00650828
RightToes  7.56698e-010 0 -3.6325e-017
Spine  16.4157 -0.127034 3.22728
Spine1  9.1156 1.38691 -3.95777
HEad  -16.8258 -11.4659 20.4285
LeftShoulder1  2.92984 -10.6747 -13.7079
LeftArm  -14.9181 -32.7087 -61.659
LeftForeArm  3.85175 -33.1256 -6.9706
LeftHand  -1.87033 -4.16917 22.7528
RightShoulder  1.79712 5.25502 13.6153
RightArm  -40.0319 22.2104 50.543
RightForeArm  5.12292 44.9594 10.9616
RightHand  -2.52413 9.48994 -19.8298
LeftUpLeg  -32.266 -12.301 -5.12629
LeftLeg  50.1415 6.50163 8.72958
LeftFoot  30.444 2.26606 -6.43224
LeftToes  -3.13779e-010 -2.47553e-011 -5.36621e-011
382
root  -4.06525 38.8661 -6.06652 17.9079 -69.9535 -24.8218
RightUpLeg  14.7553 -1.53997 9.14058
RightLeg  28.1269 -14.8103 -8.68843
RightFoot  -4.68991 -0.234962 4.35518
RightToes  7.56698e-010 0 -3.6325e-017
Spine  13.1973 0.855196 4.8088
Spine1  8.01751 2.63982 -4.32946
HEad  -15.6579 -13.4571 21.8185
LeftShoulder1  3.19985 -10.7639 -15.641
LeftArm  -17.0126 -25.1065 -62.1489
LeftForeArm  8.3993 -51.3845 -13.7947
LeftHand  -1.74051 -4.65833 20.1984
RightShoulder  1.81908 4.7692 15.235
RightArm  -41.3977 17.0717 49.4384
RightForeArm  13.2383 61.9602 20.794
RightHand  -2.08349 8.14315 -18.072
LeftUpLeg  -32.6194 -12.2687 -3.17558
LeftLeg  50.7194 6.85125 9.32732
LeftFoot  25.761 1.92042 -6.26396
LeftToes  -3.13779e-010 -2.47553e-011 -5.36621e-011
383
root  -4.32932 37.3733 -6.3752 27.2729 -69.3787 -32.8668
RightUpLeg  15.5517 0.324938 10.0302
RightLeg  26.6596 -6.05149 -3.47837
RightFoot  -12.6749 0.0617987 12.4041
RightToes  7.56698e-010 0 -3.6325e-017
Spine  10.8996 1.22105 6.53528
Spine1  7.15764 3.36675 -5.29434
HEad  -15.5259 -13.4971 22.0293
LeftShoulder1  3.38711 -10.919 -16.7979
LeftArm  -19.6774 -17.7802 -62.2285
LeftForeArm  25.5257 -71.7106 -37.1863
LeftHand  -1.32493 -3.69262 17.0629
RightShoulder  1.79472 4.28364 16.389
RightArm  -42.2649 15.1283 48.2694
RightForeArm  37.8374 75.7092 48.0228
RightHand  -1.74076 6.39375 -17.3509
LeftUpLeg  -31.9688 -14.4939 -0.673159
LeftLeg  53.54 7.0493 10.6255
LeftFoot  10.4076 0.921402 -4.63442
LeftToes  -3.13779e-010 -2.47553e-011 -5.36621e-011
384
root  -4.54411 35.9542 -6.60766 31.1667 -68.1863 -37.09
RightUpLeg  16.7056 1.69249 11.7853
RightLeg  27.5154 0.307897 -0.0765327
RightFoot  -22.4301 1.20052 14.4031
RightToes  7.56698e-010 0 -3.6325e-017
Spine  9.72326 0.744349 6.95928
Spine1  8.59584 2.86342 -4.53828
HEad  -18.1886 -12.2566 21.7898
LeftShoulder1  3.41868 -10.6276 -17.5669
LeftArm  -21.6352 -15.5149 -61.055
LeftForeArm  103.229 -77.8157 -119.403
LeftHand  -0.816004 -1.22683 14.4379
RightShoulder  1.72374 3.97223 16.4048
RightArm  -43.8402 16.3466 46.5166
RightForeArm  102.724 78.2766 115.198
RightHand  -1.42824 4.62759 -16.6987
LeftUpLeg  -30.7553 -17.223 0.264752
LeftLeg  57.4256 8.10332 13.9118
LeftFoot  -6.50218 -0.0217977 0.880181
LeftToes  -3.13779e-010 -2.47553e-011 -5.36621e-011
385
root  -4.67899 35.2363 -6.64696 31.8438 -68.1956 -39.2211
RightUpLeg  19.1839 2.1406 13.2795
RightLeg  27.626 -0.390459 -0.462731
RightFoot  -28.7997 1.6033 11.579
RightToes  7.56698e-010 0 -3.6325e-017
Spine  9.6581 0.534196 6.41906
Spine1  11.5851 2.4315 -2.66012
HEad  -21.6549 -10.7797 21.4917
LeftShoulder1  3.41675 -10.2362 -18.2956
LeftArm  -23.2621 -17.5455 -58.4432
LeftForeArm  135.422 -68.3642 -151.985
LeftHand  -0.512433 0.726058 12.8563
RightShoulder  1.65105 3.79059 15.9477
RightArm  -46.1731 17.3433 44.5815
RightForeArm  132.941 71.2768 146.639
RightHand  -1.09569 3.07408 -15.1949
LeftUpLeg  -30.0142 -17.2107 -0.208055
LeftLeg  60.332 8.41641 16.0951
LeftFoot  -12.6382 0.0975518 4.30934
LeftToes  -3.13779e-010 -2.47553e-011 -5.36621e-011
386
root  -4.565 35.512 -6.23119 36.8984 -71.1751 -45.2381
RightUpLeg  19.8792 3.27708 11.8706
RightLeg  27.8329 -1.11891 -0.858037
RightFoot  -27.5032 1.4279 11.541
RightToes  7.56698e-010 0 -3.6325e-017
Spine  10.6123 1.0844 7.42156
Spine1  13.1043 3.15908 -2.57636
HEad  -22.5788 -8.73693 20.103
LeftShoulder1  3.45237 -10.2015 -18.646
LeftArm  -25.7968 -18.0083 -55.3263
LeftForeArm  137.61 -65.9284 -154.635
LeftHand  -0.509575 1.13537 13.8201
RightShoulder  1.65684 3.79616 16.0133
RightArm  -46.1308 16.2141 44.7458
RightForeArm  136.474 68.761 150.927
RightHand  -0.977303 2.55895 -14.4337
LeftUpLeg  -29.2973 -13.3445 -0.93589
LeftLeg  59.8232 8.67006 16.1864
LeftFoot  -8.60657 -0.0282078 3.70894
LeftToes  -3.13779e-010 -2.47553e-011 -5.36621e-011
387
root  -4.15929 36.5944 -5.31482 47.4199 -75.8443 -55.5087
RightUpLeg  15.3162 5.16141 7.00005
RightLeg  32.1637 1.72264 0.954996
RightFoot  -16.38 0.491147 13.925
RightToes  7.56698e-010 0 -3.6325e-017
Spine  12.6462 1.23787 9.09187
Spine1  11.811 3.65065 -3.71545
HEad  -20.8327 -5.20474 15.7482
LeftShoulder1  3.42035 -10.2726 -18.2535
LeftArm  -28.6082 -14.4666 -53.294
LeftForeArm  127.244 -70.2535 -147.091
LeftHand  -0.646923 0.793234 16.3481
RightShoulder  1.72665 3.99642 16.3686
RightArm  -41.567 14.6553 48.0426
RightForeArm  126.122 73.2298 140.405
RightHand  -1.10674 3.37555 -14.8303
LeftUpLeg  -27.3371 -8.3176 -2.32756
LeftLeg  54.0215 10.1769 15.1227
LeftFoot  -1.07915 -0.235133 2.54587
LeftToes  -3.13779e-010 -2.47553e-011 -5.36621e-011
388
root  -3.64098 38.0188 -4.22047 52.2043 -79.8391 -59.3642
RightUpLeg  6.28099 6.20438 1.45697
RightLeg  40.3247 0.814704 0.324819
RightFoot  2.29105 -1.27634 11.775
RightToes  7.56698e-010 0 -3.6325e-017
Spine  15.2495 0.309366 7.76852
Spine1  9.17315 1.88293 -2.04474
HEad  -18.7804 -0.16832 8.07673
LeftShoulder1  3.2745 -10.1103 -17.4139
LeftArm  -30.035 -11.5284 -52.7709
LeftForeArm  91.0297 -77.7653 -111.64
LeftHand  -0.777391 0.115023 17.2152
RightShoulder  1.79467 4.33933 16.2172
RightArm  -35.3432 14.2889 51.9376
RightForeArm  81.3977 79.1008 93.078
RightHand  -1.25636 4.56139 -14.8674
LeftUpLeg  -23.5335 -5.51075 -5.1058
LeftLeg  42.8289 9.73993 10.1277
LeftFoot  6.24073 -0.157807 0.944228
LeftToes  -3.13779e-010 -2.47553e-011 -5.36621e-011
389
root  -3.2317 39.2705 -3.25759 40.8054 -82.032 -46.9493
RightUpLeg  -3.60081 4.9285 -2.48359
RightLeg  48.1908 -4.72295 -6.02854
RightFoot  18.0149 -1.03628 4.28213
RightToes  7.56698e-010 0 -3.6325e-017
Spine  16.9588 -1.03151 3.91416
Spine1  7.2148 -1.58069 3.58791
HEad  -17.4271 5.28118 -0.907928
LeftShoulder1  3.12728 -9.94142 -16.555
LeftArm  -28.9238 -14.3942 -52.0191
LeftForeArm  24.0434 -72.5483 -38.5367
LeftHand  -1.03888 -1.52024 17.4628
RightShoulder  1.83829 4.70761 15.6694
RightArm  -31.0727 15.2087 53.7703
RightForeArm  26.4839 70.9829 32.6585
RightHand  -1.31943 5.42825 -14.3888
LeftUpLeg  -18.7168 -4.93489 -7.62469
LeftLeg  30.47 3.82068 2.80219
LeftFoot  12.1172 1.03617 -5.32198
LeftToes  -3.13779e-010 -2.47553e-011 -5.36621e-011
390
root  -3.04415 40.2211 -2.41201 23.65 -82.3276 -29.0624
RightUpLeg  -12.1784 2.60954 -4.11034
RightLeg  53.0791 -9.91621 -14.0829
RightFoot  21.8136 0.496551 -1.28903
RightToes  7.56698e-010 0 -3.6325e-017
Spine  17.3075 -2.21362 0.584585
Spine1  6.52094 -4.84895 9.83639
HEad  -16.235 10.2164 -8.66227
LeftShoulder1  3.03748 -10.0789 -15.5787
LeftArm  -25.5766 -21.5482 -49.9482
LeftForeArm  10.1914 -56.5382 -15.5653
LeftHand  -1.45368 -2.64989 21.0754
RightShoulder  1.8521 4.87861 15.3475
RightArm  -29.4494 16.8266 53.966
RightForeArm  13.8163 54.2219 14.2777
RightHand  -1.47916 6.21937 -15.0102
LeftUpLeg  -13.9505 -4.40148 -8.31592
LeftLeg  23.585 -2.62766 -1.04592
LeftFoot  12.202 2.65719 -13.2771
LeftToes  -3.13779e-010 -2.47553e-011 -5.36621e-011
391
root  -3.05924 40.8945 -1.56111 10.0198 -82.7715 -15.4526
RightUpLeg  -18.6209 1.30773 -4.35494
RightLeg  52.8047 -11.5232 -16.1516
RightFoot  18.4032 0.516606 -1.37786
RightToes  7.56698e-010 0 -3.6325e-017
Spine  17.1486 -3.1483 -1.84932
Spine1  6.75013 -7.06585 13.2175
HEad  -15.5058 14.3369 -13.9952
LeftShoulder1  2.94886 -10.2979 -14.4806
LeftArm  -23.5071 -27.1124 -47.4178
LeftForeArm  11.5599 -49.9542 -12.1862
LeftHand  -1.58854 -1.59619 26.2877
RightShoulder  1.81904 4.7206 15.3744
RightArm  -28.6075 18.4681 54.2392
RightForeArm  8.23426 36.4192 7.56699
RightHand  -1.72623 6.57126 -16.9601
LeftUpLeg  -9.50403 -3.47887 -8.27063
LeftLeg  25.1717 -2.71969 -0.985921
LeftFoot  5.21246 2.16833 -14.6827
LeftToes  -3.13779e-010 -2.47553e-011 -5.36621e-011
392
root  -3.31168 41.0388 -0.666741 -12.1563 -84.5776 6.2572
RightUpLeg  -23.5455 1.34487 -3.8269
RightLeg  48.4599 -9.41012 -11.5649
RightFoot  15.8789 -1.13041 5.09261
RightToes  7.56698e-010 0 -3.6325e-017
Spine  16.5919 -3.68127 -3.10169
Spine1  6.66698 -7.82438 13.3533
HEad  -15.4861 17.3351 -17.4401
LeftShoulder1  2.84057 -10.0264 -14.0768
LeftArm  -26.2694 -28.3557 -45.5095
LeftForeArm  16.7216 -57.9426 -17.0341
LeftHand  -1.45412 -0.476312 28.4564
RightShoulder  1.76057 4.39652 15.5611
RightArm  -28.7339 19.0975 54.3821
RightForeArm  3.69957 19.2054 4.66121
RightHand  -1.82332 6.34513 -18.2075
LeftUpLeg  -4.64927 -1.89111 -8.62213
LeftLeg  31.5504 2.69129 2.19202
LeftFoot  -2.44149 0.695173 -8.77295
LeftToes  -3.13779e-010 -2.47553e-011 -5.36621e-011
393
root  -3.79214 40.6248 0.247513 -21.8829 -88.7687 16.1964
RightUpLeg  -28.5751 2.37002 -1.93807
RightLeg  43.3764 -5.18196 -5.51776
RightFoot  16.8615 -3.61744 14.6788
RightToes  7.56698e-010 0 -3.6325e-017
Spine  15.2234 -3.45489 -2.92073
Spine1  5.35902 -6.86926 11.912
HEad  -15.2679 19.363 -20.1725
LeftShoulder1  2.71638 -8.98199 -14.9293
LeftArm  -31.0369 -26.876 -44.5599
LeftForeArm  41.3541 -74.4788 -44.3086
LeftHand  -1.21227 0.28804 27.278
RightShoulder  1.78393 4.30843 16.1612
RightArm  -33.3861 17.2886 52.5958
RightForeArm  7.9879 4.67933 5.30948
RightHand  -1.66133 5.95525 -17.1693
LeftUpLeg  1.3785 1.31504 -8.98608
LeftLeg  34.8311 8.4068 6.54891
LeftFoot  -4.87714 0.135287 -2.15235
LeftToes  -3.13779e-010 -2.47553e-011 -5.36621e-011
